<?xml version="1.0" encoding="utf-8"?>
<!-- Generator: Adobe Illustrator 19.1.0, SVG Export Plug-In . SVG Version: 6.00 Build 0)  -->
<svg version="1.1" id="レイヤー_1" xmlns="http://www.w3.org/2000/svg" xmlns:xlink="http://www.w3.org/1999/xlink" x="0px"
	 y="0px" viewBox="0 0 192 68" style="enable-background:new 0 0 192 68;" xml:space="preserve">
<style type="text/css">
	.st0{fill:#97D7CC;}
</style>
<g>
	<path class="st0" d="M5.7,41.5c-0.5,2.1-0.3,3.7,0.6,4.9c1.1,1.5,4.9,3,8.3,3c7,0,12-3.6,12.3-9.7c0.3-4.8-2.3-8.1-8.7-10.8
		c-4.1-1.8-7-3.3-6.8-6.5c0.1-1.2,0.6-2.3,1.5-3.1c1.2-1.1,3.1-1.6,5.2-1.5c3.2,0.2,5.6,1.4,7,2.3c0-1.3-0.2-2.3-1-3.4
		c-1.1-1.6-3-2.7-5.7-3.2c-4.3-0.7-7.3,0.7-8.9,2.1c-2.2,1.8-3.6,4.4-3.8,7.3c-0.2,4.2,2.8,7.7,8.8,10.2c4.2,1.8,6.8,3.6,6.6,7l0,0
		c-0.2,3-2.8,5-6.7,5C11.6,44.9,8,43.5,5.7,41.5z"/>
	<path class="st0" d="M54,44.4c0.6,3.2,3,4.3,6.1,4.5c-0.2-1.1-0.7-3.6-0.7-8.4V28c0-4.8-1.1-8.4-3.4-10.7c-2.8-2.9-6-4.2-10.1-4
		l0,0c-3.2,0.1-5.9,1-7.9,2.6c-2.4,1.9-3.1,4-2.9,6.3c2.9-2.8,6.7-4.3,10.9-4c5.1,0.3,7.6,3.3,7.6,9.8c-1.9-0.7-3.2-0.9-4.8-0.9
		c-4.7-0.1-8.6,1.1-11.8,3.6c-3.1,2.4-4.6,5.3-4.6,8.7c0,2.9,1,5.3,3,7.2c2,1.9,5.2,2.9,7.5,2.9C48.2,49.4,51.4,47.8,54,44.4z
		 M53.7,40.5c-2.5,3-5.5,4.6-8.7,4.6c-4.5,0-6.8-1.9-6.8-5.7c0-2.3,1.1-4.3,3.1-5.9c2.1-1.6,4.7-2.5,8-2.5c1.4,0,3.5,0.5,4.5,0.7
		C53.7,31.8,53.7,40.4,53.7,40.5z"/>
	<path class="st0" d="M94.5,17.4c-2.8-3.2-6.8-4.8-11.3-4.8c-4.5,0-8.6,1.6-11.3,4.8c-3,3.4-4.7,8.3-4.7,13.6
		c0,5.3,1.7,10.1,4.7,13.6c2.8,3.2,6.8,4.8,11.3,4.8c4.5,0,8.6-1.6,11.3-4.8c3-3.4,4.7-8.3,4.7-13.6C99.1,25.7,97.4,20.8,94.5,17.4z
		 M83.1,44.6c-6,0-10.4-4.8-10.4-13.6c0-8.8,4.5-13.6,10.4-13.6S93.6,22.2,93.6,31C93.6,39.8,89.1,44.6,83.1,44.6z"/>
	<path class="st0" d="M69.6,55.1c1.2-0.8,3-1.2,4.6-1.1c1.6,0.1,3.7,1.2,6.2,2.5c3.1,1.6,6.5,3.5,9.8,3.8c5.2,0.5,8.6-1.3,9.7-5.5
		c-1.8,1.3-4,1.3-6.4,1.1c-3.2-0.4-6-1.6-8.7-2.8c-2.6-1.2-5.1-2.3-7.6-2.5C74.2,50.4,70.8,52.5,69.6,55.1z"/>
	<path class="st0" d="M113.5,48.9V17.4c0-3.4-4.4-3.9-5.8-4l0,31.5C107.7,48.3,112.2,48.8,113.5,48.9z"/>
	<path class="st0" d="M129.7,18.8c0-0.4,0-1.5,0-1.5c0-3.3-4.4-3.8-5.8-3.9v31.5c0,3.4,4.4,3.9,5.8,4c0,0,0-25.8,0-26.2
		c0.7-1,2-2.5,3.8-3.5c1.6-0.9,3.2-1.3,4.7-1.3c2.8,0,4.8,0.8,6,2.4c1.2,1.5,1.8,4.2,1.8,8v16.7c0,3.4,4.4,3.9,5.8,4v-7.3l0-14.7
		c0-9.2-3.8-13.7-11.5-13.7C135.6,13.2,131.9,14.9,129.7,18.8z"/>
	<path class="st0" d="M180,44.4c0.6,3.2,3,4.3,6.1,4.5c-0.2-1.1-0.7-3.6-0.7-8.4V28c0-4.8-1.1-8.4-3.4-10.7c-2.8-2.9-6-4.2-10.1-4
		l0,0c-3.2,0.1-5.9,1-7.9,2.6c-2.4,1.9-3.1,4-2.9,6.3c2.9-2.8,6.7-4.3,10.9-4c5.1,0.3,7.6,3.3,7.6,9.8c-1.9-0.7-3.2-0.9-4.8-0.9
		c-4.7-0.1-8.6,1.1-11.8,3.6c-3.1,2.4-4.6,5.3-4.6,8.7c0,2.9,1,5.3,3,7.2c2,1.9,5.2,2.9,7.5,2.9C174.2,49.4,177.4,47.8,180,44.4z
		 M179.7,40.5c-2.5,3-5.5,4.6-8.7,4.6c-4.5,0-6.8-1.9-6.8-5.7c0-2.3,1.1-4.3,3.1-5.9c2.1-1.6,4.7-2.5,8-2.5c1.4,0,3.5,0.5,4.5,0.7
		C179.7,31.8,179.7,40.4,179.7,40.5z"/>
</g>
</svg>
